<svg width="28" height="22" viewBox="0 0 28 22" fill="none" xmlns="http://www.w3.org/2000/svg">
<g clip-path="url(#clip0_2_364)">
<path d="M23.4251 2.4524C21.6915 1.66715 19.8324 1.0886 17.8887 0.757249C17.8533 0.750854 17.8179 0.766836 17.7997 0.7988C17.5606 1.21859 17.2957 1.76623 17.1103 2.19668C15.0196 1.8877 12.9397 1.8877 10.8919 2.19668C10.7064 1.75666 10.432 1.21859 10.1918 0.7988C10.1736 0.767902 10.1382 0.751921 10.1028 0.757249C8.16013 1.08755 6.30107 1.66609 4.56636 2.4524C4.55135 2.4588 4.53847 2.46946 4.52993 2.4833C1.00368 7.68383 0.037693 12.7565 0.511574 17.7663C0.513718 17.7909 0.527656 17.8143 0.546954 17.8292C2.87347 19.5158 5.1271 20.5397 7.33889 21.2184C7.37428 21.2291 7.41179 21.2163 7.43432 21.1875C7.95751 20.4822 8.4239 19.7385 8.82378 18.9564C8.84737 18.9107 8.82485 18.8563 8.77662 18.8382C8.03685 18.5612 7.33245 18.2234 6.65486 17.8399C6.60127 17.809 6.59698 17.7333 6.64628 17.6971C6.78887 17.5916 6.9315 17.4818 7.06765 17.371C7.09229 17.3508 7.12661 17.3465 7.15557 17.3593C11.607 19.3656 16.4263 19.3656 20.8252 17.3593C20.8541 17.3455 20.8885 17.3497 20.9142 17.37C21.0504 17.4808 21.193 17.5916 21.3366 17.6971C21.3859 17.7333 21.3827 17.809 21.3291 17.8399C20.6515 18.2309 19.9471 18.5612 19.2063 18.8371C19.1581 18.8552 19.1366 18.9107 19.1602 18.9564C19.5687 19.7374 20.035 20.4811 20.5486 21.1865C20.57 21.2163 20.6086 21.2291 20.644 21.2184C22.8665 20.5397 25.1201 19.5158 27.4467 17.8292C27.467 17.8143 27.4799 17.7919 27.4821 17.7674C28.0492 11.9755 26.5321 6.94441 23.4605 2.48436C23.453 2.46946 23.4401 2.4588 23.4251 2.4524ZM9.48853 14.7159C8.14834 14.7159 7.04405 13.5013 7.04405 12.0096C7.04405 10.518 8.12692 9.30336 9.48853 9.30336C10.8608 9.30336 11.9544 10.5286 11.933 12.0096C11.933 13.5013 10.8501 14.7159 9.48853 14.7159ZM18.5266 14.7159C17.1864 14.7159 16.0821 13.5013 16.0821 12.0096C16.0821 10.518 17.1649 9.30336 18.5266 9.30336C19.8989 9.30336 20.9924 10.5286 20.971 12.0096C20.971 13.5013 19.8989 14.7159 18.5266 14.7159Z" fill="#111111"/>
</g>
<defs>
<clipPath id="clip0_2_364">
<rect width="27.2" height="20.8" fill="white" transform="translate(0.399902 0.600098)"/>
</clipPath>
</defs>
</svg>
