<?xml version="1.0" encoding="UTF-8"?>
<svg id="_레이어_1" data-name="레이어 1" xmlns="http://www.w3.org/2000/svg" viewBox="0 0 495.46 140.37">
  <defs>
    <style>
      .cls-1 {
        fill: #231815;
      }

      .cls-2 {
        fill: #fff;
      }

      .cls-2, .cls-3 {
        stroke: #231815;
        stroke-miterlimit: 10;
        stroke-width: 3px;
      }

      .cls-3 {
        fill: #f3c91e;
      }
    </style>
  </defs>
  <g>
    <path class="cls-1" d="M171.86,49.39c1.39-2.58,2.27-5.55,2.65-8.91-.07-.83-.47-1.27-1.21-1.34h-18.25c-.29,.3-.56,.84-.8,1.63-.25,.79-.46,1.55-.65,2.26s-.54,1.36-1.06,1.95c-.51,.58-1.17,.87-1.98,.87-2.95-.16-4.43-3.02-4.43-8.59,0-.45,.02-1.03,.07-1.74,.04-.72,.07-1.21,.07-1.48,.02-.49,.04-1.27,.07-2.33,.02-1.06,.05-1.91,.08-2.55,.03-.64,.1-1.42,.2-2.35s.27-1.68,.5-2.26c.23-.58,.53-1.16,.89-1.73,.36-.57,.84-.99,1.44-1.26,.6-.27,1.31-.4,2.11-.4,.81,0,1.44,.24,1.9,.72,.46,.48,.76,1.07,.91,1.76,.15,.69,.27,1.39,.37,2.08s.3,1.28,.6,1.76c.3,.48,.74,.72,1.33,.72,.11,0,.28-.01,.5-.03,.22-.02,.39-.03,.5-.03,.65,0,2.01,.02,4.08,.07,2.07,.04,3.68,.07,4.85,.07,4.92,0,7.38-.36,7.38-1.08v-3.22c-.27-2.5-.9-4.77-1.88-6.79-.98-2.02-2.35-3.82-4.09-5.38-1.74-1.56-4-2.78-6.76-3.64-2.76-.86-5.94-1.29-9.54-1.29-2.24,0-4.48,.21-6.74,.62-2.26,.41-4.58,1.15-6.98,2.22-2.39,1.06-4.52,2.39-6.37,3.99-1.86,1.6-3.43,3.7-4.73,6.31-1.3,2.61-2.06,5.54-2.28,8.81v2.95c0,1.86,.09,3.64,.25,5.35,.17,1.71,.49,3.56,.97,5.53,.48,1.98,1.11,3.8,1.9,5.47s1.83,3.29,3.15,4.86c1.32,1.58,2.84,2.91,4.56,4.01s3.84,1.97,6.34,2.63c2.5,.66,5.28,.99,8.32,.99,3.27,0,6.28-.42,9.04-1.24s5.23-2.05,7.4-3.68c2.17-1.62,3.95-3.72,5.33-6.31Z"/>
    <path class="cls-1" d="M191.9,57.8c.11,0,.2,0,.28-.03,.08-.02,.15-.04,.22-.05s.12-.05,.16-.09c.04-.04,.08-.08,.11-.11s.05-.08,.07-.15c.02-.07,.04-.13,.05-.17s.03-.11,.03-.2c0-.09,0-.16,0-.2s0-.13,0-.24c0-.12,0-.2,0-.26v-10.77s1.24,0,1.24,0c.43,0,.79,.04,1.06,.13s.5,.26,.66,.5c.16,.24,.27,.45,.34,.62s.15,.45,.26,.85l.59,4.79c.14,1.26,.39,2.39,.73,3.39,.34,1,.69,1.56,1.05,1.67h1.83c.86,0,1.51,.02,1.94,.05,1.06,0,2.68,0,4.86-.03,2.12-.02,3.7-.03,4.78-.03v.38s11.63,0,11.63,0c.75,0,1.37-.1,1.84-.3,.48-.2,.83-.51,1.06-.93,.23-.42,.4-.83,.5-1.21s.21-.92,.32-1.59c.12-.67,.24-1.22,.36-1.63h8.29c.36,0,.57,.02,.65,.06,.07,.04,.14,.24,.22,.58l1.02,4.09c.02,.14,.07,.26,.15,.35,.08,.09,.22,.16,.4,.22,.19,.05,.33,.09,.42,.11,.09,.02,.29,.04,.59,.08h12.49c.59,0,.99-.08,1.2-.22,.07-.05,.13-.14,.18-.23,.2,.26,.35,.45,.45,.56h30.1c.54,0,.92-.11,1.16-.31,.23-.2,.35-.57,.35-1.1v-7c0-1.44-.29-2.15-.86-2.15h-13.46s1.29-1.4,1.29-1.4l1.18-1.51c.99-1.13,2.73-3.1,5.23-5.9s4.42-4.96,5.75-6.49v-.43c0-.05,.07-.27,.22-.65,0-.02,0-.12,.01-.3s.02-.43,.04-.75c.02-.32,.04-.7,.05-1.13,.02-.43,.03-.96,.04-1.59,0-.63,.01-1.27,.01-1.94l-.11-.32c0-.07,.02-.26,.05-.57,.04-.31,.05-.57,.05-.78,0-.39-.02-.7-.05-.92-.04-.22-.13-.37-.27-.47-.14-.1-.27-.15-.38-.16-.11,0-.32-.01-.65-.01h-29.83s0,9.32,0,9.32c0,.39,.22,.7,.65,.92h1.72c.2,0,.49,0,.89-.03,.39-.02,.69-.03,.89-.03h.7c.57,0,1.93-.01,4.06-.04,2.14-.03,3.45-.02,3.93,.01l-2.29,2.67c-4.88,6.09-8.54,10.54-10.98,13.36-.18,.18-.27,1.44-.27,3.77v1.4c0,.22,0,.51-.03,.89-.02,.38-.03,.64-.03,.78v.47c-.16-.34-.28-.63-.32-.84v-.54s-.28-.8-.28-.8c-1.22-3.48-1.86-5.41-2.49-7.49l-1.08-3.88c-.14-.43-.39-1.03-.74-1.79-.35-.76-.65-1.48-.9-2.14-.25-.66-.41-1.26-.49-1.78v-.32c-.81-2.42-2.08-6.3-3.83-11.63-.36-.66-.56-1.08-.59-1.24v-.7c-.25-.43-1.62-.65-4.09-.64l-14.54-.1c-.14,.14-.3,.35-.46,.62-.04,.05-.06,.1-.08,.13-1.18,3.72-2.08,6.44-2.69,8.18v-.05c-1,3.03-2.42,7.5-4.24,13.41-1.48,4.81-2.67,8.59-3.58,11.38-.13-.85-.35-1.86-.69-3.07-.54-1.91-.84-3.23-.92-3.94-.02-.13-.05-.31-.11-.57-.18-1.09-.3-1.78-.35-2.06-.05-.28-.22-.86-.5-1.75s-.57-1.52-.86-1.9c-.3-.38-.72-.83-1.28-1.35-.56-.52-1.21-.94-1.97-1.26,1.9-.95,3.31-2.12,4.23-3.5,.91-1.38,1.37-3.05,1.37-5.01,0-1.42-.27-2.67-.81-3.75s-1.24-1.96-2.11-2.62c-.87-.66-1.92-1.21-3.15-1.64-1.23-.43-2.48-.73-3.74-.89-1.27-.16-2.62-.24-4.08-.24-1.69,0-4.23,.04-7.62,.11-3.39,.07-5.86,.11-7.4,.11h-5.01s.01,35.97,.01,35.97h14.16Zm37.39-15.44c.09-.45,.13-.76,.13-.94,.38-1.62,.86-3.73,1.45-6.35,0-.02,.06-.08,.19-.19,.13-.11,.21-.22,.24-.35v-1.29c.43-2.32,.86-3.52,1.29-3.61l.18,.04c.36,.16,.43,.34,.58,.71v1.29c.23,.72,.45,1.49,.65,2.33,.2,.83,.4,1.81,.61,2.93,.21,1.12,.36,1.93,.47,2.44,0,.07,.04,.18,.12,.34,.08,.15,.13,.26,.15,.31v.59c.32,1.22,.49,2.06,.49,2.53h-6.68c0-.07,.04-.33,.13-.78Zm-35.94-12.45c3.59,0,5.38,.93,5.38,2.8,0,.77-.17,1.44-.52,1.99-.35,.56-.81,.97-1.37,1.24-.57,.27-1.12,.46-1.66,.58s-1.08,.18-1.62,.18c-.07-.02-.14-.06-.22-.13-.07-.07-.14-.17-.22-.28-.07-.12-.13-.19-.16-.23,0-.52-.03-1.3-.08-2.34s-.08-1.82-.08-2.34v-1.02c0-.2,.18-.34,.54-.43Z"/>
    <path class="cls-1" d="M290.55,32.17l6.22,13.27v11.25s.87,1.13,.87,1.13h10.28c.18,0,.52,0,1.04,.02,.51,.02,.91,.02,1.18,.01,.28,0,.6-.04,.97-.08s.65-.15,.86-.31c.21-.16,.35-.37,.42-.62v-.81c0-.83-.02-2.31-.06-4.44-.04-2.14-.05-3.72-.06-4.76l-.43-1.8,12.21-22.13c-.18-.83-.48-1.27-.92-1.32-3.39,.04-6.55,.07-9.48,.11-.14,0-.33,0-.55-.03-.22-.02-.4-.03-.52-.03-1.79,0-2.76,.22-2.91,.65-.04,.25-.14,.57-.32,.97-.18,.39-.29,.66-.32,.81-1.18,3.64-2.46,7.29-3.82,10.93l-4.23-13.3h-14.24c-.86,0-1.29,.26-1.29,.76,0,.84,.74,2.74,2.21,5.68l2.88,4.04Z"/>
    <path class="cls-1" d="M344.34,59.32c1.42-.05,3.53-.07,6.33-.07h4.96c.23,0,.86,0,1.89,.03,1.03,.02,1.86,.03,2.5,.02s1.35-.05,2.17-.1c.81-.06,1.44-.18,1.88-.36,.44-.18,.68-.41,.72-.69v-16.8s1.51,0,1.51,0c1.7,0,2.87,.36,3.51,1.08,.64,.72,1.01,2.22,1.1,4.49,.02,.16,.2,1.5,.53,4.01,.33,2.51,.67,4.44,1.02,5.78,.34,1.34,.77,2.09,1.27,2.25h3.44c.69,.04,1.81,.07,3.37,.07,.16,0,1.42,.07,3.79,.21,2.36,.14,4.36,.16,5.97,.07s2.68-.39,3.18-.9c.18,0,.28-.23,.28-.69-.09-.32-.32-.81-.67-1.48-.36-.67-.57-1.18-.64-1.55v-3.03c-.07-.64-.16-1.52-.26-2.63-.1-1.11-.19-2.07-.26-2.87s-.19-1.76-.36-2.86c-.17-1.1-.37-2.05-.6-2.86-.23-.8-.55-1.66-.96-2.58-.41-.92-.9-1.7-1.45-2.36s-1.24-1.27-2.07-1.84c-.83-.57-1.76-1.02-2.79-1.34,5.6-2.57,8.4-6.64,8.4-12.19,0-4.27-1.36-7.57-4.08-9.91-2.72-2.34-6.69-3.58-11.9-3.71h-30.02c-1.84,0-2.75,.33-2.75,.97l.02,51.37c.32,.18,.64,.34,.96,.48Zm20.39-40.42c.1-.48,.33-.8,.67-.96h.83c.55,0,1.02,.01,1.41,.03,.39,.02,.92,.07,1.6,.15,.68,.08,1.25,.22,1.72,.41,.47,.19,.95,.45,1.43,.77,.48,.32,.85,.75,1.1,1.29,.25,.54,.38,1.16,.38,1.88,0,1.26-.23,2.35-.7,3.25-.47,.91-1.11,1.59-1.91,2.05-.8,.46-1.64,.79-2.5,1-.86,.21-1.77,.31-2.74,.31-.46-.46-.8-1.23-1.03-2.31-.23-1.08-.36-1.95-.38-2.62s-.03-1.69-.04-3.06c0-.99,.05-1.72,.15-2.2Z"/>
    <path class="cls-1" d="M410.46,57.48c.18,0,.31-.07,.39-.2,.08-.13,.17-.39,.26-.77V21.46s-14.49,0-14.49,0c-.05,.05-.22,.14-.48,.26-.27,.12-.41,.25-.43,.39V57.49s14.76,0,14.76,0Z"/>
    <path class="cls-1" d="M415.96,46.27c.8,2.4,1.96,4.49,3.49,6.28s3.48,3.2,5.87,4.21c2.39,1.01,5.08,1.52,8.08,1.52,1.81,0,3.32-.13,4.52-.38v-.16c3.37-.59,6.18-1.98,8.42-4.17s3.56-5.07,3.95-8.64v-1.02c-.05-.72-.38-1.08-.97-1.08h-1.99c-.5,0-1.25,0-2.23,.03-.99,.02-1.73,.03-2.23,.03-.72,0-1.79,0-3.23-.03s-2.51-.03-3.23-.03c-.29,.29-.54,.83-.77,1.64s-.5,1.5-.83,2.07-.84,.86-1.52,.86c-.65,0-1.18-.21-1.62-.62-.43-.41-.73-.95-.9-1.61-.17-.66-.28-1.21-.32-1.63-.04-.42-.07-.86-.07-1.31v-3.01c0-.16,0-.42,0-.78-.04-.52-.04-1.07-.01-1.66s.06-1.16,.11-1.72c.04-.57,.14-1.1,.3-1.62,.15-.51,.35-.96,.59-1.35,.24-.39,.57-.7,1-.93,.42-.23,.91-.35,1.47-.35,.63,0,1.16,.25,1.59,.75s.69,1.06,.78,1.67v2.32s11.52,0,11.52,0c.45,0,.8-.01,1.05-.04,.25-.03,.48-.11,.7-.24,.22-.13,.35-.33,.4-.58v-2.32c-.18-1.29-.49-2.49-.92-3.61-.43-1.11-1.07-2.19-1.91-3.24-.84-1.05-1.86-1.94-3.04-2.68-1.18-.74-2.67-1.32-4.47-1.76-1.79-.44-3.8-.66-6.03-.66-1.76,0-3.43,.16-5.01,.47-1.58,.31-3.12,.82-4.63,1.51-1.51,.69-2.89,1.67-4.14,2.92-1.26,1.26-1.99,2.14-2.82,3.86l-.31,.55c-.16,.32-.3,.64-.43,.94-.13,.31-.24,.63-.35,.97-.11,.34-.2,.63-.28,.87-.08,.24-.15,.55-.22,.93-.06,.38-.11,.66-.15,.86s-.08,.51-.13,.94-.09,.72-.09,.87-.04,.48-.08,.97c-.04,.49-.08,.8-.09,.93v.38c0,2.84,.4,5.45,1.2,7.85Z"/>
    <path class="cls-1" d="M454.56,57.31h3.55c.93,0,2.3-.02,4.11-.06,1.8-.04,3.13-.05,3.97-.06h1.24c.41,0,.72-.05,.93-.14,.21-.09,.35-.3,.42-.62v-11.63c.57-.07,1.07-.11,1.5-.11h1.83c.45,0,.7,.03,.77,.08,.06,.05,.09,.28,.09,.67v10.88c.06,.11,.21,.22,.45,.35s.38,.21,.42,.24v.59s13.73,0,13.73,0c.23,0,.41-.1,.54-.3,.13-.2,.2-.41,.23-.63,.03-.22,.04-.52,.04-.9V22.57c-.01-.57-.11-.96-.31-1.16s-.51-.3-.94-.3h-13.73s0,11.85,0,11.85h-4.68s0-11.57,0-11.57h-14.48s-.11,.09-.27,.21-.27,.21-.32,.27c-.05,.06-.08,.14-.08,.23l-.15,33.92c0,.86,.39,1.29,1.16,1.29Z"/>
    <path class="cls-1" d="M117.32,38.07c-.27-1.14-.57-1.92-.89-2.36-.32-.43-.8-.69-1.43-.78h-38.51s-12.48,40.03-12.48,40.03c-.18-.68-.58-2.14-1.2-4.37-.62-2.23-1.23-4.42-1.85-6.55-.62-2.14-1.33-4.62-2.15-7.44-.82-2.82-1.64-5.41-2.46-7.75s-1.65-4.56-2.49-6.66c-.84-2.09-1.65-3.75-2.43-4.98-.77-1.23-1.48-1.89-2.12-1.98-2.32,0-5.86-.02-10.62-.07-4.76-.04-8.32-.07-10.69-.07H10.8c-.96,0-1.91,.26-2.87,.76-.96,.5-1.43,1.05-1.43,1.64l11.68,19.59c.73,1.41,1.47,2.89,2.22,4.44s1.47,3.05,2.15,4.51c.68,1.46,1.38,2.94,2.08,4.44,.71,1.5,1.42,3,2.15,4.51s1.43,2.98,2.12,4.44c.68,1.46,1.4,2.96,2.15,4.51,.75,1.55,1.47,3.03,2.15,4.44,4.55,8.69,6.83,18.48,6.84,29.36v4.92c0,.55,.02,1.8,.07,3.76,.05,1.96,.05,3.57,0,4.85-.05,1.27-.16,2.41-.34,3.41,0,2.18,.82,4.1,2.46,5.73,4.51,0,10.98-.05,19.43-.14,8.44-.09,14.81-.14,19.08-.14,.86,0,1.48-.17,1.84-.51,.36-.34,.66-.9,.89-1.67v-34.14c3.99-8.33,9.92-19.93,17.77-34.79,7.85-14.86,13.2-25.17,16.07-30.9Z"/>
    <path class="cls-1" d="M156.58,118.53c-.46-.39-1.53-.59-3.23-.59h-6.26c-1.27,0-3.34,.05-6.21,.15-2.87,.1-5.04,.15-6.5,.15-.26,0-.65-.02-1.17-.05-.52-.03-.91-.05-1.17-.05v-6.26s7.82,0,7.82,0c1.76,0,4.12-.08,7.07-.25,2.95-.16,5.03-.25,6.23-.25v.1c.23,0,.39-.07,.49-.2s.23-.39,.39-.78v-1.27c0-.52-.03-1.14-.1-1.86-.07-.72-.1-1.43-.1-2.15v-1.37c0-.29-.02-.64-.05-1.05-.03-.41-.05-.68-.05-.81v-1.86c0-.16,.03-.44,.1-.83,.07-.39,.1-.67,.1-.83,0-.65-.16-1.16-.49-1.52s-.95-.54-1.86-.54c-2.09,0-5.07,.07-8.95,.2-3.88,.13-6.76,.2-8.66,.2h-2.15s0-6.06,0-6.06h22.69c.1-.1,.28-.24,.54-.42s.42-.29,.46-.34c.05-.05,.11-.15,.2-.29,.08-.15,.14-.32,.17-.51v-16.33c0-.75-.43-1.17-1.28-1.27h-13.01c-3.33,0-8.32,.09-14.99,.25-6.67,.17-11.65,.25-14.94,.25h-2.54c-.2-.06-.55-.1-1.08-.1h-1.17c-.65,0-1.12,.23-1.42,.69-.16,.33-.24,1.47-.24,3.42l.02,59.56,1.47,1.27h48.41c.72-.05,1.21-.24,1.47-.6,.26-.36,.39-.88,.39-1.56v-15.65c-.1-.2-.23-.39-.4-.59Z"/>
    <path class="cls-1" d="M212.52,117.83c-.26-.26-.52-.41-.78-.44-.26-.03-.65-.05-1.17-.05h-20.73s-.01-35.69-.01-35.69c0-.26,.19-.6,.56-1,.37-.41,.58-.69,.61-.86v-2.15c0-.36,.02-.88,.05-1.56s.05-1.21,.05-1.56v-.68c-.55-1.27-1.24-1.96-2.05-2.05-.29,0-.69-.03-1.2-.1-.51-.07-.79-.1-.86-.1-.26,0-.42,.03-.49,.1-.59-.07-1.43-.1-2.54-.1h-4.69c-3.33,0-8.38-.06-15.16-.19-1.11,1.01-1.66,3.81-1.66,8.41,0,1.24,.07,2.92,.2,5.04,.13,2.12,.2,3.5,.2,4.16,0,2.97-.11,7.32-.34,13.06-.23,5.74-.34,9.99-.34,12.76v21.13c.27,.46,.5,.77,.72,.93,.21,.16,.37,.31,.46,.44h44.89c2.87-.01,4.43-.67,4.69-1.97v-16.33c0-.52-.14-.91-.4-1.17Z"/>
    <path class="cls-1" d="M267.58,117.81c-.26-.26-.52-.41-.78-.44s-.65-.05-1.17-.05h-20.73s-.01-35.69-.01-35.69c0-.26,.19-.6,.56-1,.37-.41,.58-.69,.61-.86v-2.15c0-.36,.02-.88,.05-1.56,.03-.68,.05-1.21,.05-1.56v-.68c-.55-1.27-1.24-1.96-2.05-2.05-.29,0-.69-.03-1.2-.1-.51-.07-.79-.1-.86-.1-.26,0-.42,.03-.49,.1-.59-.07-1.43-.1-2.54-.1h-4.69c-3.33,0-8.38-.06-15.16-.19-1.11,1.01-1.66,3.81-1.66,8.41,0,1.24,.07,2.92,.2,5.04,.13,2.12,.2,3.5,.2,4.16,0,2.97-.11,7.32-.34,13.06-.23,5.74-.34,9.99-.34,12.76v21.13c.27,.46,.5,.77,.72,.93,.21,.16,.37,.31,.46,.44h44.89c2.87-.01,4.43-.67,4.69-1.97v-16.33c0-.52-.14-.91-.4-1.17Z"/>
    <path class="cls-1" d="M328.79,79.55c-1.5-1.92-3.38-3.58-5.65-4.96-2.27-1.38-4.62-2.39-7.07-3.03-2.45-.64-4.67-1.09-6.68-1.37-2.01-.28-3.92-.41-5.75-.41-7.3,1.14-12.55,2.38-15.74,3.72h-1.86c-3.19,1.31-5.57,2.87-7.14,4.7l-1.17,1.17c-3.29,3.29-5.57,7.39-6.84,12.28-.55,2.09-1.14,5.79-1.76,11.1l.1,1.08v2.93c.26,4.24,1.02,8.11,2.28,11.61,1.26,3.5,2.9,6.49,4.92,8.97,2.02,2.48,4.36,4.56,7.02,6.26,2.66,1.69,5.51,2.94,8.56,3.74s6.25,1.2,9.61,1.2c2.28,0,4.57-.15,6.87-.44,2.3-.29,4.7-.79,7.21-1.49,2.51-.7,4.88-1.72,7.11-3.06s4.1-2.94,5.6-4.79l1.96-2.45c4.3-5.9,6.45-13.53,6.45-22.89,0-8.31-2.68-15.81-8.03-22.49v-1.37Zm-18.35,28.66c-.05,1.11-.15,2.4-.29,3.86-.15,1.47-.4,2.69-.76,3.67-.36,.98-.81,1.94-1.37,2.89-.55,.95-1.28,1.65-2.18,2.1s-1.95,.69-3.15,.69c-4.37,0-6.55-5.74-6.56-17.21v-2.15c0-9.65,2.44-14.48,7.33-14.48,1.4,0,2.59,.48,3.57,1.44,.98,.96,1.7,2.23,2.18,3.81,.47,1.58,.81,3.15,1,4.72,.2,1.56,.29,3.19,.29,4.89v1.76c0,1.56-.02,2.9-.07,4.01Z"/>
    <path class="cls-1" d="M432.78,72.48c-.18-.16-.38-.3-.61-.42-.23-.11-.45-.19-.66-.22s-.46-.05-.76-.05c-.2,0-.5,.02-.9,.05-.41,.03-.69,.05-.86,.05-.2-.2-.91-.29-2.15-.29-.33,0-.77,.02-1.32,.05s-.9,.05-1.03,.05c-1.04,0-2.54-.03-4.5-.1-1.96-.06-3.46-.1-4.5-.1-.2,0-.57,0-1.12,0-.55,0-.98,0-1.27,0-.29,0-.69,0-1.2,.02-.51,.02-.9,.05-1.2,.1-.29,.05-.6,.11-.93,.2s-.58,.19-.76,.32c-.18,.13-.3,.29-.37,.49l-3.95,33.64-2.11-13.84c-.1-.78-.2-1.61-.32-2.49-.11-.88-.23-1.73-.34-2.54-.11-.81-.22-1.68-.32-2.59s-.2-1.78-.29-2.62c-.1-.83-.2-1.7-.32-2.62-.11-.91-.22-1.78-.32-2.59-.1-.82-.2-1.67-.32-2.57s-.22-1.74-.32-2.52h-28.17c-.29,2-.66,4.69-1.1,8.1-.44,3.41-.82,6.28-1.15,8.63-.33,2.35-.74,5.02-1.24,8.02-.5,3-1.05,5.69-1.64,8.07l-3.58-31.05c-.03-.95-.32-1.57-.86-1.88-.54-.31-1.33-.46-2.37-.46h-3.23s0-.19,0-.19h-3.23c-.36,0-.88,.02-1.56,.05-.68,.03-1.21,.05-1.56,.05h-1.37c-.29,0-.61,.02-.95,.05-.34,.03-.58,.05-.71,.05h-1.66c0,.13-.33,.2-.98,.2h-3.23c-.46,0-1.14-.06-2.05-.19-.2,.07-.36,.15-.49,.24s-.23,.18-.29,.24-.11,.17-.15,.32c-.03,.15-.05,.24-.05,.29,0,.05,0,.17,0,.37,0,.2,0,.33,0,.39l-.29,3.47,13.03,60.78h1.56c1.56,0,4.04-.05,7.43-.15,3.39-.1,6.13-.15,8.22-.15,1.21,0,3,.05,5.38,.15s4.17,.15,5.38,.15c.42,0,.78-.11,1.08-.34,.29-.23,.54-.62,.73-1.17s.33-.99,.42-1.32,.2-.93,.34-1.81c.15-.88,.24-1.42,.27-1.61l3.37-25.92,5.44,31.39h28.61s14.21-62.41,14.21-62.41c-.07-.42-.17-.78-.32-1.08-.15-.29-.31-.52-.49-.68Z"/>
    <path class="cls-1" d="M494.18,108.09c-.85-2.07-1.91-3.79-3.18-5.16-1.27-1.37-2.86-2.62-4.77-3.74s-3.71-2.01-5.4-2.66c-1.7-.65-3.6-1.27-5.72-1.86l-7.19-1.76c-.39-.2-1.07-.42-2.03-.66-.96-.24-1.83-.46-2.59-.63s-1.45-.49-2.05-.93c-.6-.44-.9-.97-.91-1.59,0-.55,.36-1.01,1.08-1.37s1.38-.58,1.98-.66c.6-.08,1.12-.12,1.54-.12,1.37,0,2.49,.13,3.37,.39s1.52,.59,1.93,.98c.41,.39,.77,.78,1.1,1.17,.33,.39,.77,.72,1.32,.98,.55,.26,1.27,.39,2.15,.39,1.17,0,2.82,.03,4.94,.1,2.12,.06,3.64,.1,4.55,.1h8.31s1.37-1.96,1.37-1.96c-.23-1.79-.42-3.07-.56-3.84-.15-.77-.48-1.8-1-3.1-.52-1.3-1.21-2.38-2.05-3.23-2.35-2.84-5.8-5.14-10.34-6.92-4.55-1.78-9.48-2.66-14.79-2.66-3,0-5.9,.24-8.7,.71-2.8,.47-5.56,1.27-8.26,2.4s-5.06,2.52-7.06,4.18c-2,1.66-3.62,3.8-4.84,6.41s-1.83,5.54-1.83,8.8c0,4.92,1.56,8.99,4.67,12.2,3.11,3.21,8.21,5.86,15.28,7.94h2.93c.42,.13,1.37,.37,2.84,.73,1.47,.36,2.63,.67,3.5,.93,.86,.26,1.85,.6,2.96,1.03,1.11,.42,1.94,.9,2.49,1.42,.55,.52,.83,1.08,.83,1.66,0,1.27-.51,2.24-1.54,2.91-1.03,.67-2.18,1-3.45,1-1.17,0-2.12-.19-2.84-.59-.72-.39-1.21-.87-1.49-1.44s-.52-1.14-.73-1.71-.5-1.05-.86-1.44-.86-.59-1.52-.59h-2.25c-4.56,0-7.79,.04-9.68,.1-.2-.07-.42-.1-.68-.1h-1.27c-.85,0-1.5,.03-1.96,.1h-4.99c-.2,0-.49-.01-.88-.05-.39-.03-.68-.05-.88-.05-.72,0-1.08,.39-1.08,1.17,.26,3.26,1.1,6.19,2.52,8.8,1.42,2.61,3.61,5.02,6.58,7.24v.59c3.49,2.74,10.37,4.37,20.64,4.88,2.31-.16,4.36-.35,6.14-.56,1.78-.21,3.8-.54,6.06-.98,2.27-.44,4.26-1.03,5.99-1.76,1.73-.73,3.44-1.65,5.13-2.74,1.69-1.09,3.16-2.46,4.4-4.11,1.24-1.65,2.2-3.51,2.88-5.6l.33-1.01c.78-2.35,.84-3.91,.84-6.91,0-2.48-.43-4.75-1.27-6.82Z"/>
  </g>
  <g>
    <g>
      <path class="cls-2" d="M169.51,35.48c-.38,3.35-1.26,6.32-2.65,8.91-1.39,2.58-3.16,4.69-5.33,6.31-2.17,1.62-4.63,2.85-7.4,3.68-2.76,.83-5.77,1.24-9.04,1.24-3.04,0-5.81-.33-8.32-.99-2.5-.66-4.62-1.54-6.34-2.63-1.72-1.1-3.24-2.43-4.56-4.01-1.32-1.58-2.37-3.2-3.15-4.86-.78-1.67-1.42-3.49-1.9-5.47-.48-1.98-.81-3.82-.97-5.53s-.25-3.49-.25-5.35v-2.95c.22-3.27,.98-6.2,2.28-8.81,1.3-2.61,2.87-4.71,4.73-6.31,1.86-1.6,3.98-2.93,6.37-3.99s4.72-1.8,6.98-2.22c2.26-.41,4.51-.62,6.74-.62,3.6,0,6.78,.43,9.54,1.29,2.76,.86,5.02,2.07,6.76,3.64,1.74,1.56,3.11,3.36,4.09,5.38,.98,2.02,1.61,4.29,1.88,6.79v3.22c0,.72-2.46,1.07-7.38,1.08-1.16,0-2.78-.02-4.85-.07-2.07-.04-3.43-.07-4.08-.07-.11,0-.28,.01-.5,.03s-.39,.03-.5,.03c-.58,0-1.02-.24-1.33-.72-.3-.48-.5-1.07-.6-1.76s-.22-1.39-.37-2.08c-.15-.69-.45-1.28-.91-1.76s-1.09-.72-1.9-.72c-.81,0-1.51,.13-2.11,.4s-1.08,.69-1.44,1.26-.65,1.15-.89,1.73c-.23,.58-.4,1.34-.5,2.26s-.17,1.71-.2,2.35-.06,1.49-.08,2.55-.04,1.84-.07,2.33c0,.27-.02,.76-.07,1.48-.04,.72-.07,1.3-.07,1.74,0,5.57,1.48,8.43,4.43,8.59,.81,0,1.46-.29,1.98-.87,.51-.58,.87-1.23,1.06-1.95,.19-.72,.41-1.47,.65-2.26,.25-.79,.51-1.34,.8-1.63h18.25c.74,.06,1.14,.51,1.21,1.34Z"/>
      <path class="cls-2" d="M172.73,16.84h5.01c1.54,0,4.01-.04,7.4-.11,3.39-.07,5.93-.11,7.62-.11,1.45,0,2.81,.08,4.08,.24,1.27,.16,2.51,.46,3.74,.89s2.28,.98,3.15,1.64,1.58,1.54,2.11,2.62c.54,1.09,.81,2.34,.81,3.75,0,1.96-.46,3.63-1.37,5.01s-2.32,2.55-4.23,3.5c.75,.32,1.41,.74,1.97,1.26s.98,.97,1.28,1.35,.58,1.01,.86,1.9c.28,.89,.44,1.47,.5,1.75s.17,.96,.35,2.06c.05,.25,.09,.44,.11,.57,.07,.72,.38,2.03,.92,3.94,.54,1.91,.81,3.38,.81,4.4,0,.65-.2,.97-.59,.97-1.08,0-2.71,0-4.89,.03-2.18,.02-3.8,.03-4.86,.03-.43-.04-1.08-.05-1.94-.05h-1.83c-.36-.11-.71-.66-1.05-1.67-.34-1-.58-2.14-.73-3.39l-.59-4.79c-.11-.39-.19-.68-.26-.85s-.18-.38-.34-.62-.38-.41-.66-.5-.63-.13-1.06-.13h-1.24s0,10.77,0,10.77v.26c0,.12,0,.2,0,.24v.2c0,.09,0,.16-.03,.2s-.04,.1-.05,.17-.04,.12-.07,.15l-.11,.11s-.1,.08-.16,.09-.13,.04-.22,.05-.17,.03-.28,.03h-14.16s-.01-35.96-.01-35.96Zm15.24,14.21s.09,.11,.16,.23,.14,.21,.22,.28,.14,.12,.22,.13c.54,0,1.08-.06,1.62-.18s1.09-.31,1.66-.58c.57-.27,1.02-.68,1.37-1.24s.52-1.22,.52-1.99c0-1.87-1.8-2.8-5.38-2.8-.36,.09-.54,.23-.54,.43v1.02c0,.52,.03,1.3,.08,2.34s.08,1.82,.08,2.34Z"/>
      <path class="cls-2" d="M222.86,47.19c-.13,.41-.25,.96-.36,1.63-.12,.67-.22,1.2-.32,1.59s-.26,.79-.5,1.21c-.23,.42-.59,.73-1.06,.93s-1.09,.3-1.84,.3h-11.63s0-.91,0-.91c.95-2.85,2.34-7.23,4.16-13.14,1.82-5.9,3.23-10.37,4.24-13.41v.05c.61-1.74,1.51-4.47,2.69-8.18,.02-.04,.04-.08,.08-.13,.16-.27,.31-.48,.46-.62l14.54,.1c2.48,0,3.84,.21,4.09,.64v.7c.04,.16,.23,.57,.59,1.24,1.74,5.33,3.02,9.21,3.83,11.63v.32c.07,.52,.23,1.11,.49,1.78s.55,1.38,.9,2.14c.35,.76,.6,1.36,.74,1.79l1.08,3.88c.63,2.08,1.27,4.01,2.49,7.49l.28,.8v.54c.05,.25,.19,.59,.4,1.02,.22,.43,.35,.74,.4,.92,0,.5-.1,.83-.31,.97s-.61,.22-1.2,.22h-12.49c-.31-.03-.5-.06-.59-.08s-.23-.05-.42-.11-.32-.13-.4-.22-.13-.21-.15-.35l-1.02-4.09c-.07-.34-.14-.53-.22-.58s-.29-.07-.65-.07h-8.29Zm7.21-12.81c-.11-.5-.27-1.31-.47-2.44s-.41-2.1-.61-2.93c-.2-.83-.41-1.61-.65-2.33v-1.29c-.14-.38-.22-.55-.58-.71l-.18-.04c-.43,.09-.86,1.29-1.29,3.61v1.29c-.04,.13-.12,.24-.24,.35s-.19,.17-.19,.19c-.59,2.62-1.08,4.74-1.45,6.35,0,.18-.04,.49-.13,.94s-.13,.71-.13,.78h6.68c0-.47-.16-1.31-.49-2.53v-.59c-.02-.05-.07-.16-.15-.31s-.12-.26-.12-.34Z"/>
      <path class="cls-2" d="M248.11,51.6v-1.67c0-.14,0-.4,.03-.78s.03-.67,.03-.89v-1.4c0-2.33,.09-3.59,.27-3.77,2.44-2.82,6.1-7.27,10.98-13.36l2.29-2.67c-.48-.04-1.79-.04-3.93-.01-2.14,.03-3.49,.04-4.06,.04h-.7c-.2,0-.49,0-.89,.03-.39,.02-.69,.03-.89,.03h-1.72c-.43-.21-.65-.52-.65-.91v-9.31s29.82,0,29.82,0c.32,0,.54,0,.65,.01s.23,.06,.38,.16,.23,.26,.27,.47,.05,.52,.05,.92c0,.22-.02,.48-.05,.78s-.05,.49-.05,.57l.11,.32c0,.66,0,1.31-.01,1.94,0,.63-.02,1.16-.04,1.59s-.04,.81-.05,1.13c-.02,.32-.03,.57-.04,.75,0,.18-.01,.28-.01,.3-.14,.38-.22,.59-.22,.65v.43c-1.33,1.53-3.24,3.69-5.75,6.49s-4.25,4.77-5.23,5.9l-1.18,1.51-1.29,1.4h13.46c.57,0,.86,.71,.86,2.15v7c0,.54-.11,.91-.35,1.1s-.62,.3-1.16,.3h-30.1c-.11-.1-.26-.29-.47-.57s-.32-.48-.34-.61Z"/>
      <path class="cls-2" d="M295.99,16.7l4.23,13.3c1.36-3.64,2.64-7.29,3.82-10.93,.04-.14,.14-.41,.32-.81,.18-.39,.29-.72,.32-.97,.14-.43,1.11-.65,2.91-.65,.13,0,.3,0,.52,.03s.41,.03,.55,.03c2.93-.04,6.08-.07,9.48-.11,.43,.05,.74,.49,.92,1.32l-12.21,22.13,.43,1.8c0,1.04,.02,2.63,.06,4.76,.04,2.14,.05,3.62,.06,4.44v.81c-.07,.25-.21,.46-.42,.62s-.49,.26-.86,.31-.69,.07-.97,.08-.67,0-1.18-.01c-.51-.02-.86-.03-1.04-.03h-10.28s-.86-1.13-.86-1.13v-11.25s-6.23-13.27-6.23-13.27l-2.88-4.04c-1.47-2.94-2.21-4.84-2.21-5.68,0-.5,.43-.75,1.29-.75h14.24Z"/>
      <path class="cls-2" d="M388.5,53.41c-.5,.51-1.57,.8-3.18,.9-1.62,.09-3.61,.07-5.97-.07-2.36-.14-3.63-.21-3.79-.21-1.56,0-2.69-.02-3.37-.07h-3.44c-.5-.16-.93-.91-1.27-2.25-.34-1.34-.68-3.27-1.02-5.78-.33-2.51-.51-3.85-.53-4.01-.09-2.27-.46-3.77-1.1-4.49-.64-.72-1.81-1.08-3.51-1.08h-1.51s0,16.8,0,16.8c-.05,.28-.29,.51-.72,.69s-1.06,.3-1.88,.36c-.81,.06-1.54,.09-2.17,.1-.63,.01-1.46,0-2.5-.02-1.03-.02-1.66-.03-1.89-.03h-4.96c-2.8,0-4.91,.03-6.33,.07-.32-.14-.64-.3-.96-.48l-.02-51.37c0-.64,.92-.96,2.75-.96h30.02c5.21,.13,9.18,1.37,11.9,3.71,2.72,2.34,4.08,5.64,4.08,9.91,0,5.55-2.8,9.62-8.4,12.19,1.03,.32,1.96,.77,2.79,1.34s1.52,1.19,2.07,1.84c.55,.65,1.03,1.44,1.45,2.36,.41,.92,.73,1.78,.96,2.58,.23,.8,.43,1.76,.6,2.86,.17,1.1,.29,2.05,.36,2.86,.07,.8,.16,1.76,.26,2.87,.1,1.11,.19,1.99,.26,2.63v3.03c.07,.37,.28,.88,.64,1.55,.36,.67,.58,1.16,.67,1.48,0,.46-.09,.69-.28,.69Zm-28.93-37.31c0,1.38,.01,2.4,.04,3.06,.02,.67,.15,1.54,.38,2.62,.23,1.08,.57,1.85,1.03,2.31,.96,0,1.88-.1,2.74-.31,.86-.21,1.69-.54,2.5-1,.8-.46,1.44-1.14,1.91-2.05s.71-1.99,.7-3.25c0-.71-.13-1.34-.38-1.88-.25-.54-.62-.97-1.1-1.29s-.96-.58-1.43-.77-1.04-.33-1.72-.41-1.21-.13-1.6-.15c-.39-.02-.86-.03-1.41-.03h-.83c-.34,.16-.57,.48-.67,.96-.1,.48-.15,1.22-.15,2.2Z"/>
      <path class="cls-2" d="M390.71,52.49V17.12c0-.14,.15-.27,.42-.39s.43-.2,.48-.26h14.48s.01,35.04,.01,35.04c-.09,.38-.17,.63-.26,.77s-.21,.2-.39,.2h-14.75Z"/>
      <path class="cls-2" d="M428.4,53.28c-3,0-5.69-.51-8.08-1.52-2.39-1.01-4.34-2.42-5.87-4.21-1.53-1.79-2.69-3.89-3.49-6.28-.8-2.4-1.2-5.01-1.2-7.85v-.38c.02-.13,.05-.44,.09-.93,.04-.49,.07-.82,.08-.97s.04-.44,.09-.87,.1-.74,.13-.94,.09-.48,.15-.86c.06-.38,.13-.69,.22-.93s.17-.53,.28-.87,.22-.66,.35-.97,.27-.62,.43-.94l.31-.55c.82-1.72,1.56-2.6,2.82-3.86,1.26-1.26,2.64-2.23,4.14-2.92,1.51-.69,3.05-1.19,4.63-1.51s3.25-.47,5.01-.47c2.23,0,4.24,.22,6.03,.66,1.79,.44,3.28,1.03,4.47,1.76,1.18,.74,2.2,1.63,3.04,2.68,.84,1.05,1.48,2.13,1.91,3.24s.74,2.31,.92,3.61v2.32c-.05,.25-.19,.44-.4,.58s-.45,.22-.7,.24-.6,.04-1.05,.04h-11.52s0-2.31,0-2.31c-.09-.61-.35-1.17-.78-1.67s-.96-.75-1.59-.75c-.56,0-1.05,.12-1.47,.35-.42,.23-.75,.54-1,.93s-.44,.83-.59,1.35-.25,1.05-.3,1.62c-.04,.57-.08,1.14-.11,1.72-.03,.58-.02,1.14,.01,1.66,0,.36,0,.62,0,.78v3.01c0,.45,.02,.88,.07,1.31s.15,.96,.32,1.63,.47,1.2,.9,1.61,.97,.62,1.62,.62c.68,0,1.19-.29,1.52-.86,.33-.57,.61-1.27,.83-2.07,.22-.81,.48-1.36,.77-1.64,.72,0,1.79,0,3.23,.03,1.44,.02,2.51,.03,3.23,.03,.5,0,1.25,0,2.23-.03,.99-.02,1.73-.03,2.23-.03h1.99c.59,0,.92,.36,.97,1.08v1.02c-.39,3.57-1.71,6.45-3.95,8.64-2.24,2.19-5.05,3.58-8.42,4.17v.16c-1.2,.25-2.71,.38-4.52,.38Z"/>
      <path class="cls-2" d="M483.36,17.57V50.68c.01,.38,0,.68-.03,.9s-.1,.44-.23,.63-.3,.3-.54,.3h-13.73s0-.59,0-.59c-.04-.04-.18-.12-.42-.24s-.39-.24-.44-.35v-10.88c0-.39-.03-.62-.1-.67s-.32-.08-.77-.08h-1.83c-.43,0-.93,.04-1.51,.11v11.63c-.07,.32-.21,.53-.41,.62s-.52,.13-.93,.13h-1.24c-.84,0-2.17,.02-3.97,.06-1.8,.04-3.17,.05-4.11,.06h-3.55c-.77,0-1.16-.43-1.16-1.29l.15-33.92c0-.09,.03-.17,.08-.23s.16-.15,.32-.27,.25-.18,.27-.2h14.48s0,11.57,0,11.57h4.68s0-11.85,0-11.85h13.73c.43,0,.74,.09,.94,.29s.3,.58,.3,1.16Z"/>
    </g>
    <g>
      <path class="cls-3" d="M112.32,33.07c-2.87,5.74-8.22,16.04-16.07,30.9-7.85,14.86-13.77,26.46-17.78,34.79v34.14c-.22,.77-.51,1.33-.88,1.67-.36,.34-.98,.51-1.84,.51-4.28,0-10.64,.05-19.08,.14-8.44,.09-14.92,.14-19.43,.14-1.64-1.64-2.46-3.55-2.46-5.73,.18-1,.3-2.14,.34-3.41,.05-1.27,.04-2.89,0-4.85-.05-1.96-.07-3.21-.07-3.76v-4.92c0-10.88-2.28-20.67-6.84-29.36-.68-1.41-1.4-2.89-2.15-4.44-.75-1.55-1.47-3.05-2.15-4.51s-1.39-2.94-2.12-4.44c-.73-1.5-1.45-3-2.15-4.51-.71-1.5-1.4-2.98-2.08-4.44-.68-1.46-1.4-2.96-2.15-4.51s-1.49-3.03-2.22-4.44L1.5,32.48c0-.59,.48-1.14,1.43-1.64,.96-.5,1.91-.75,2.87-.75H23.01c2.37,0,5.93,.02,10.69,.06,4.76,.04,8.3,.07,10.62,.07,.64,.09,1.34,.75,2.12,1.98,.77,1.23,1.58,2.89,2.43,4.98s1.67,4.31,2.49,6.66c.82,2.34,1.64,4.93,2.46,7.75,.82,2.82,1.54,5.3,2.15,7.44,.62,2.14,1.23,4.32,1.85,6.55s1.01,3.69,1.2,4.37l12.48-40.02h38.51c.64,.08,1.12,.34,1.43,.77,.32,.43,.61,1.22,.89,2.36Z"/>
      <path class="cls-3" d="M100.22,71.1c0-1.96,.08-3.1,.24-3.42,.29-.46,.77-.68,1.42-.69h1.17c.52,0,.88,.03,1.08,.1h2.54c3.29,0,8.27-.08,14.94-.25,6.67-.16,11.66-.25,14.99-.25h13.01c.85,.09,1.27,.52,1.27,1.27v16.33c-.03,.2-.08,.37-.17,.51s-.15,.24-.2,.29-.2,.16-.46,.34-.44,.32-.54,.42h-22.69s0,6.07,0,6.07h2.15c1.89,0,4.78-.07,8.66-.2s6.86-.2,8.95-.2c.91,0,1.53,.18,1.86,.54,.33,.36,.49,.86,.49,1.52,0,.16-.03,.44-.1,.83-.07,.39-.1,.67-.1,.83v1.86c0,.13,.02,.4,.05,.81s.05,.76,.05,1.05v1.37c0,.72,.03,1.43,.1,2.15s.1,1.34,.1,1.86v1.27c-.16,.39-.29,.65-.39,.78-.1,.13-.26,.2-.49,.2v-.1c-1.21,0-3.28,.08-6.23,.25-2.95,.16-5.31,.25-7.07,.25h-7.82s0,6.26,0,6.26c.26,0,.65,.02,1.17,.05,.52,.03,.91,.05,1.17,.05,1.47,0,3.63-.05,6.5-.15s4.94-.15,6.21-.15h6.26c1.7,0,2.77,.19,3.23,.58,.16,.2,.29,.39,.39,.59v15.65c0,.68-.13,1.21-.39,1.56s-.75,.55-1.47,.59h-48.41s-1.47-1.26-1.47-1.26l-.02-59.56Z"/>
      <path class="cls-3" d="M158.33,132.31c-.1-.13-.25-.28-.46-.44s-.45-.47-.71-.93v-21.13c0-2.77,.11-7.03,.33-12.76,.23-5.74,.34-10.09,.34-13.06,0-.65-.07-2.04-.2-4.16-.13-2.12-.2-3.8-.2-5.04,0-4.6,.55-7.4,1.66-8.41,6.78,.13,11.83,.19,15.16,.19h4.69c1.11,0,1.96,.03,2.54,.1,.07-.07,.23-.1,.49-.1,.07,0,.35,.03,.86,.1s.9,.1,1.2,.1c.82,.1,1.5,.78,2.05,2.05v.68c0,.36-.02,.88-.05,1.56s-.05,1.21-.05,1.56v2.15c-.03,.16-.24,.45-.61,.86-.37,.41-.56,.74-.56,1v35.7s20.74,0,20.74,0c.52,0,.91,.02,1.17,.05s.52,.18,.78,.44c.26,.26,.39,.65,.39,1.17v16.33c-.26,1.3-1.82,1.96-4.69,1.96h-44.89Z"/>
      <path class="cls-3" d="M213.39,132.29c-.1-.13-.25-.28-.46-.44s-.45-.47-.71-.93v-21.13c0-2.77,.11-7.03,.33-12.76,.23-5.74,.34-10.09,.34-13.06,0-.65-.07-2.04-.2-4.16-.13-2.12-.2-3.8-.2-5.04,0-4.6,.55-7.4,1.66-8.41,6.78,.13,11.83,.19,15.16,.19h4.69c1.11,0,1.96,.03,2.54,.1,.07-.07,.23-.1,.49-.1,.07,0,.35,.03,.86,.1s.9,.1,1.2,.1c.82,.1,1.5,.78,2.05,2.05v.68c0,.36-.02,.88-.05,1.56s-.05,1.21-.05,1.56v2.15c-.03,.16-.24,.45-.61,.86s-.56,.74-.56,1v35.7s20.74,0,20.74,0c.52,0,.91,.02,1.17,.05s.52,.18,.78,.44,.39,.65,.39,1.17v16.33c-.26,1.3-1.82,1.96-4.69,1.96h-44.89Z"/>
      <path class="cls-3" d="M264.24,98.83l-.1-1.08c.62-5.31,1.2-9.01,1.76-11.1,1.27-4.89,3.55-8.98,6.84-12.28l1.17-1.17c1.56-1.83,3.94-3.39,7.14-4.7h1.86c3.19-1.34,8.44-2.58,15.74-3.72,1.83,0,3.74,.14,5.75,.41,2.01,.28,4.23,.73,6.68,1.37,2.45,.63,4.8,1.64,7.07,3.03,2.27,1.38,4.15,3.04,5.65,4.96v1.37c5.35,6.68,8.02,14.18,8.03,22.49,0,9.36-2.15,16.99-6.45,22.89l-1.96,2.45c-1.5,1.86-3.36,3.46-5.6,4.79-2.23,1.34-4.6,2.36-7.11,3.06s-4.91,1.2-7.21,1.49-4.59,.44-6.87,.44c-3.36,0-6.56-.4-9.61-1.2-3.05-.8-5.9-2.04-8.56-3.74-2.66-1.69-5-3.78-7.02-6.26s-3.66-5.47-4.92-8.97c-1.26-3.5-2.02-7.38-2.28-11.61v-2.93Zm26.89,.38c0,11.48,2.19,17.21,6.56,17.21,1.21,0,2.26-.23,3.15-.69,.9-.46,1.62-1.16,2.18-2.1s1.01-1.91,1.37-2.89,.61-2.2,.76-3.67c.15-1.47,.24-2.75,.29-3.86,.05-1.11,.07-2.45,.07-4.01v-1.76c0-1.7-.1-3.33-.3-4.89s-.53-3.14-1-4.72-1.2-2.85-2.18-3.81c-.98-.96-2.17-1.44-3.57-1.44-4.89,0-7.33,4.83-7.33,14.48v2.15Z"/>
      <path class="cls-3" d="M361.75,99.73c.59-2.38,1.13-5.07,1.64-8.07,.5-3,.92-5.67,1.24-8.02,.33-2.35,.71-5.22,1.15-8.63,.44-3.41,.81-6.1,1.1-8.09h28.17c.1,.77,.2,1.61,.32,2.51,.11,.9,.22,1.75,.32,2.57,.1,.81,.2,1.68,.32,2.59,.11,.91,.22,1.78,.32,2.62,.1,.83,.2,1.7,.29,2.62,.1,.91,.2,1.78,.32,2.59s.23,1.66,.34,2.54,.22,1.71,.32,2.49l2.11,13.84,3.95-33.64c.07-.2,.19-.36,.37-.49s.43-.24,.76-.32,.64-.15,.93-.2,.69-.08,1.2-.1c.51-.02,.9-.02,1.2-.02h1.27c.55,0,.93,0,1.12,0,1.04,0,2.54,.03,4.5,.1s3.46,.1,4.5,.1c.13,0,.47-.02,1.03-.05s.99-.05,1.32-.05c1.24,0,1.96,.1,2.15,.29,.16,0,.45-.02,.86-.05s.71-.05,.9-.05c.29,0,.55,.02,.76,.05s.43,.11,.66,.22c.23,.11,.43,.25,.61,.42s.34,.39,.49,.68c.15,.29,.25,.65,.32,1.08l-14.21,62.4h-28.61s-5.44-31.38-5.44-31.38l-3.37,25.92c-.03,.2-.12,.73-.27,1.61s-.26,1.48-.34,1.81-.22,.77-.42,1.32c-.2,.55-.44,.95-.73,1.17s-.65,.34-1.08,.34c-1.21,0-3-.05-5.38-.15-2.38-.1-4.17-.15-5.38-.15-2.09,0-4.82,.05-8.22,.15s-5.87,.15-7.43,.15h-1.56s-13.03-60.78-13.03-60.78l.29-3.47v-.39c0-.2,0-.32,0-.37s.02-.15,.05-.29,.08-.25,.15-.32,.16-.15,.29-.24,.29-.18,.49-.24c.91,.13,1.6,.2,2.05,.19h3.23c.65,0,.98-.07,.98-.2h1.66c.13,0,.37-.02,.71-.05s.66-.05,.95-.05h1.37c.36,0,.88-.02,1.56-.05s1.21-.05,1.56-.05h3.23s0,.19,0,.19h3.23c1.04,0,1.83,.15,2.37,.46s.82,.94,.86,1.88l3.58,31.05Z"/>
      <path class="cls-3" d="M469.81,85.86c-.88,0-1.6-.13-2.15-.39s-.99-.59-1.32-.98-.69-.78-1.1-1.17c-.41-.39-1.05-.72-1.93-.98-.88-.26-2.01-.39-3.37-.39-.42,0-.94,.04-1.54,.12-.6,.08-1.26,.3-1.98,.66s-1.08,.82-1.08,1.37c0,.62,.3,1.15,.91,1.59,.6,.44,1.29,.75,2.05,.93,.77,.18,1.63,.39,2.59,.63s1.64,.46,2.03,.66l7.19,1.76c2.12,.59,4.03,1.21,5.72,1.86,1.7,.65,3.5,1.54,5.4,2.66,1.91,1.12,3.5,2.37,4.77,3.74,1.27,1.37,2.33,3.09,3.18,5.16,.85,2.07,1.27,4.34,1.27,6.82,0,3-.06,4.57-.84,6.91l-.33,1.01c-.68,2.09-1.65,3.95-2.88,5.6-1.24,1.65-2.7,3.02-4.4,4.11s-3.41,2.01-5.13,2.74-3.72,1.32-5.99,1.76c-2.27,.44-4.29,.77-6.06,.98-1.78,.21-3.82,.4-6.14,.56-10.27-.52-17.15-2.15-20.64-4.88v-.59c-2.97-2.22-5.16-4.63-6.58-7.24-1.42-2.61-2.26-5.54-2.52-8.8,0-.78,.36-1.17,1.08-1.17,.2,0,.49,.02,.88,.05s.68,.05,.88,.05h4.99c.46-.07,1.11-.1,1.96-.1h1.27c.26,0,.49,.03,.68,.1,1.89-.07,5.12-.1,9.68-.1h2.25c.65,0,1.16,.19,1.52,.59,.36,.39,.64,.87,.86,1.44,.21,.57,.46,1.14,.73,1.71,.28,.57,.77,1.05,1.49,1.44s1.66,.59,2.84,.59c1.27,0,2.42-.33,3.45-1,1.03-.67,1.54-1.64,1.54-2.91,0-.59-.28-1.14-.83-1.66s-1.39-.99-2.49-1.42c-1.11-.42-2.09-.77-2.96-1.03-.86-.26-2.03-.57-3.5-.93-1.47-.36-2.41-.6-2.84-.73h-2.93c-7.07-2.08-12.17-4.73-15.28-7.94-3.11-3.21-4.67-7.28-4.67-12.2,0-3.26,.61-6.19,1.83-8.8,1.22-2.61,2.83-4.74,4.84-6.41,2-1.66,4.36-3.06,7.06-4.18,2.71-1.13,5.46-1.93,8.26-2.4,2.8-.47,5.7-.71,8.7-.71,5.31,0,10.24,.89,14.79,2.66,4.55,1.78,8,4.08,10.34,6.92,.85,.85,1.53,1.92,2.05,3.23,.52,1.3,.86,2.34,1,3.1s.33,2.05,.56,3.84l-1.37,1.96h-8.31c-.91,0-2.43-.03-4.55-.09-2.12-.06-3.77-.1-4.94-.1Z"/>
    </g>
  </g>
</svg>