<svg width="28" height="25" viewBox="0 0 28 25" fill="none" xmlns="http://www.w3.org/2000/svg">
<path d="M2.01786 14.3612L2.11302 14.2097L7.85223 5.11406C7.93611 4.98085 8.1333 4.99466 8.19679 5.13929C9.15555 7.31622 9.98293 10.0235 9.59532 11.709C9.42986 12.4025 8.97651 13.3417 8.46648 14.2097C8.40079 14.336 8.32823 14.46 8.25116 14.5794C8.21493 14.6345 8.15369 14.6667 8.08795 14.6667H2.18558C2.02688 14.6667 1.93397 14.4921 2.01786 14.3612Z" fill="#111111"/>
<path d="M27.5994 16.0513V17.4911C27.5994 17.5737 27.5496 17.6472 27.477 17.6793C27.0328 17.8723 25.5118 18.5795 24.8794 19.4705C23.2656 21.7461 22.0325 25 19.2762 25H7.77739C3.70195 25 0.399414 21.6428 0.399414 17.5002V17.367C0.399414 17.2568 0.48781 17.1673 0.5966 17.1673H7.00674C7.13367 17.1673 7.22662 17.2867 7.2153 17.413C7.16995 17.8355 7.24702 18.2672 7.4442 18.6599C7.82499 19.4429 8.61383 19.932 9.46606 19.932H12.6394V17.4222H9.50235C9.34139 17.4222 9.24623 17.2339 9.33914 17.1007C9.37316 17.0479 9.41169 16.9927 9.45249 16.9308C9.74939 16.5037 10.1733 15.84 10.5949 15.0845C10.8827 14.5748 11.1616 14.0305 11.386 13.484C11.4313 13.3853 11.4675 13.2843 11.5038 13.1855C11.565 13.011 11.6285 12.8479 11.6738 12.6849C11.7191 12.5472 11.7554 12.4025 11.7917 12.267C11.8982 11.8031 11.9435 11.3117 11.9435 10.8019C11.9435 10.6022 11.9345 10.3932 11.9163 10.1934C11.9073 9.97527 11.8801 9.75713 11.8529 9.53899C11.8347 9.34608 11.8008 9.15551 11.7645 8.95574C11.7191 8.6641 11.6557 8.37478 11.5831 8.08313L11.5582 7.97292C11.5038 7.77316 11.4585 7.58254 11.395 7.38277C11.2159 6.75587 11.0097 6.14506 10.7921 5.57328C10.7128 5.34596 10.6221 5.12782 10.5314 4.90968C10.3977 4.58127 10.2617 4.28277 10.137 4.00031C10.0736 3.87172 10.0191 3.75461 9.96476 3.63521C9.90353 3.49971 9.84009 3.36427 9.7766 3.23563C9.7313 3.13689 9.67913 3.04506 9.64285 2.95322L9.2553 2.22758C9.20088 2.12884 9.29153 2.01172 9.39807 2.04157L11.8234 2.70752H11.8302C11.8347 2.70752 11.837 2.7098 11.8393 2.7098L12.1589 2.79935L12.5102 2.90038L12.6394 2.93713V1.47671C12.6394 0.771724 13.197 0.199951 13.8861 0.199951C14.2306 0.199951 14.5434 0.342298 14.7678 0.574245C14.9922 0.806193 15.1328 1.12307 15.1328 1.47671V3.6444L15.3911 3.71785C15.4115 3.72476 15.4319 3.73395 15.4501 3.7477C15.5136 3.79593 15.6042 3.86715 15.7198 3.95437C15.8105 4.02788 15.9079 4.11743 16.0258 4.20926C16.2593 4.39989 16.5381 4.64559 16.8441 4.928C16.9257 4.99923 17.005 5.07269 17.0776 5.14619C17.4719 5.51815 17.914 5.95448 18.3355 6.4367C18.4534 6.57215 18.569 6.70993 18.6869 6.85461C18.8048 7.00157 18.9294 7.14626 19.0382 7.29094C19.181 7.4838 19.3351 7.68356 19.4689 7.89256C19.5323 7.9913 19.6049 8.09232 19.6661 8.19106C19.8383 8.45514 19.9902 8.72841 20.1353 9.00164C20.1965 9.12794 20.2599 9.26572 20.3143 9.40121C20.4753 9.76632 20.6022 10.1383 20.6838 10.5103C20.7088 10.5907 20.7269 10.678 20.7359 10.756V10.7744C20.7631 10.8846 20.7722 11.0017 20.7813 11.1212C20.8176 11.5023 20.7994 11.8835 20.7178 12.267C20.6838 12.43 20.6385 12.5839 20.5841 12.7469C20.5297 12.9031 20.4753 13.0661 20.405 13.2199C20.269 13.5391 20.1081 13.8583 19.9177 14.1568C19.8565 14.267 19.7839 14.3842 19.7114 14.4944C19.6321 14.6115 19.5505 14.7217 19.478 14.8297C19.3782 14.9675 19.2717 15.1121 19.1629 15.2407C19.0654 15.3762 18.9657 15.5117 18.8569 15.6311C18.705 15.8124 18.5599 15.9847 18.4081 16.15C18.3174 16.258 18.2199 16.3682 18.1202 16.4669C18.0227 16.5771 17.923 16.6759 17.8323 16.7677C17.6805 16.9216 17.5536 17.041 17.447 17.1397L17.1977 17.3717C17.1614 17.4038 17.1138 17.4222 17.0639 17.4222H15.1328V19.932H17.5626C18.1066 19.932 18.6234 19.7368 19.0405 19.3786C19.1833 19.2523 19.8066 18.7058 20.5433 17.8814C20.5682 17.8539 20.5999 17.8332 20.6362 17.824L27.3478 15.8584C27.4725 15.8216 27.5994 15.9181 27.5994 16.0513Z" fill="#111111"/>
</svg>
