<svg width="28" height="24" viewBox="0 0 28 24" fill="none" xmlns="http://www.w3.org/2000/svg">
<g clip-path="url(#clip0_2_368)">
<path d="M24.7418 6.43178C24.7582 6.67006 24.7582 6.90833 24.7582 7.1488C24.7582 14.476 19.1866 22.9265 8.99867 22.9265V22.9221C5.98913 22.9265 3.04209 22.0635 0.508545 20.4362C0.946158 20.4889 1.38596 20.5152 1.82687 20.5163C4.32093 20.5185 6.74371 19.6807 8.70583 18.138C6.33571 18.093 4.25732 16.5458 3.53125 14.2872C4.36151 14.4475 5.217 14.4145 6.0319 14.1916C3.4479 13.669 1.58887 11.396 1.58887 8.75633C1.58887 8.73217 1.58887 8.70911 1.58887 8.68606C2.3588 9.11539 3.22087 9.35366 4.10267 9.38002C1.66893 7.75162 0.918738 4.51021 2.38842 1.97594C5.20054 5.44025 9.34964 7.54629 13.8036 7.76919C13.3573 5.84323 13.9671 3.82504 15.406 2.47115C17.6369 0.371702 21.1454 0.47931 23.2425 2.71162C24.4829 2.46676 25.6718 2.01108 26.7598 1.36543C26.3463 2.64904 25.481 3.73939 24.325 4.43225C25.4229 4.30268 26.4955 4.00841 27.5056 3.55931C26.762 4.67492 25.8254 5.64668 24.7418 6.43178Z" fill="#111111"/>
</g>
<defs>
<clipPath id="clip0_2_368">
<rect width="27.2" height="22.4" fill="white" transform="translate(0.399902 0.800049)"/>
</clipPath>
</defs>
</svg>
